<?xml version="1.0" encoding="UTF-8" standalone="no"?>
<!DOCTYPE svg PUBLIC "-//W3C//DTD SVG 1.1//EN" "http://www.w3.org/Graphics/SVG/1.1/DTD/svg11.dtd">
<svg width="100%" height="100%" viewBox="0 0 1400 1400" version="1.1" xmlns="http://www.w3.org/2000/svg" xmlns:xlink="http://www.w3.org/1999/xlink" xml:space="preserve" xmlns:serif="http://www.serif.com/" style="fill-rule:evenodd;clip-rule:evenodd;stroke-linejoin:round;stroke-miterlimit:2;">
    <rect x="0" y="0" width="1400" height="1400" style="fill:rgb(46,29,88);"/>
    <g>
        <g>
            <path d="M624.3,1151L171.375,1151C155.062,1151 141.837,1137.78 141.837,1121.46L141.837,278.538C141.837,262.225 155.062,249 171.375,249L624.3,249C640.613,249 653.838,262.224 653.838,278.538L653.838,1121.46C653.838,1137.78 640.613,1151 624.3,1151Z" style="fill:url(#_Linear1);fill-rule:nonzero;"/>
            <path d="M141.837,442L308.761,442C308.761,442 275.761,410 247.761,422C219.761,434 232.761,405 197.761,393.5C162.761,382 141.837,410.667 141.837,442Z" style="fill:url(#_Linear2);fill-rule:nonzero;"/>
            <g>
                <g>
                    <g>
                        <circle cx="269.808" cy="404.561" r="64.033" style="fill:url(#_Radial3);"/>
                    </g>
                </g>
            </g>
            <path d="M654.095,737.667C654.095,737.667 605.428,715 575.428,737.667C545.428,760.334 568.921,793 496.841,790.334C424.761,787.667 434.761,852.334 350.761,841.667C266.761,831 315.428,880.722 315.428,880.722L653.837,877.507L654.095,737.667Z" style="fill:url(#_Linear4);fill-rule:nonzero;"/>
            <path d="M141.837,716C141.837,716 191.898,685 210.83,730C229.762,775 235.762,811 297.762,806C359.762,801 350.093,802.049 417.928,853.024C485.762,904 463.01,897.161 322.386,891.58C181.762,886 141.837,880.721 141.837,880.721L141.837,716Z" style="fill:url(#_Linear5);fill-rule:nonzero;"/>
            <path d="M141.837,847.083C141.837,847.083 254.302,833.584 290.3,838.083C326.298,842.583 417.333,856.082 479.81,856.082C542.287,856.082 575.725,848 599.994,848.5C624.262,849 644.914,861.5 653.838,863L653.838,1005.02L141.838,1011.3L141.838,847.083L141.837,847.083Z" style="fill:rgb(53,70,148);fill-rule:nonzero;"/>
            <path d="M141.837,890.581C141.837,890.581 259.761,894.162 358.761,890.581C457.761,887 468.761,875 532.761,884C596.761,893 653.837,902 653.837,902L653.837,1121.46C653.837,1137.78 640.612,1151 624.299,1151L171.375,1151C155.062,1151 141.837,1137.78 141.837,1121.46L141.837,890.581Z" style="fill:rgb(28,46,118);fill-rule:nonzero;"/>
            <path d="M387.172,978C263.683,1014.01 141.837,981 141.837,981L141.837,1121.46C141.837,1137.78 155.062,1151 171.375,1151L624.3,1151C640.613,1151 653.838,1137.78 653.838,1121.46L653.838,949C613.429,934.814 523.172,938.341 387.172,978Z" style="fill:rgb(10,25,73);fill-rule:nonzero;"/>
            <path d="M654.095,422L454.702,422C454.702,422 509.035,401.122 554.398,404.561C599.762,408 586.762,365 617.762,365C648.762,365 653.838,393.5 653.838,393.5L654.095,422Z" style="fill:url(#_Linear6);fill-rule:nonzero;"/>
        </g>
    </g>
    <g>
        <path d="M1228.37,1151L775.443,1151C759.13,1151 745.905,1137.78 745.905,1121.46L745.905,278.538C745.905,262.225 759.129,249 775.443,249L1228.37,249C1244.68,249 1257.9,262.224 1257.9,278.538L1257.9,1121.46C1257.9,1137.78 1244.68,1151 1228.37,1151Z" style="fill:url(#_Linear7);fill-rule:nonzero;"/>
        <path d="M1258.16,737.667C1258.16,737.667 1209.5,715 1179.5,737.667C1149.5,760.334 1172.99,793 1100.91,790.334C1028.83,787.667 1038.83,852.334 954.828,841.667C870.828,831 919.495,880.722 919.495,880.722L1257.9,877.507L1258.16,737.667Z" style="fill:rgb(253,225,151);fill-rule:nonzero;"/>
        <path d="M745.905,716C745.905,716 795.966,685 814.898,730C833.83,775 839.83,811 901.83,806C963.83,801 954.161,802.049 1022,853.024C1089.83,903.999 1067.08,897.161 926.454,891.58C785.829,886 745.905,880.721 745.905,880.721L745.905,716Z" style="fill:rgb(253,225,151);fill-rule:nonzero;"/>
        <path d="M745.905,847.083C745.905,847.083 858.37,833.584 894.368,838.083C930.366,842.583 1021.4,856.082 1083.88,856.082C1146.36,856.082 1179.79,847.999 1204.06,848.499C1228.33,848.999 1248.98,861.499 1257.9,862.999L1257.9,1005.02L745.904,1011.3L745.904,847.083L745.905,847.083Z" style="fill:rgb(244,176,139);fill-rule:nonzero;"/>
        <path d="M745.905,890.581C745.905,890.581 863.829,894.162 962.829,890.581C1061.83,887 1072.83,875 1136.83,884C1200.83,893 1257.9,902 1257.9,902L1257.9,1121.46C1257.9,1137.78 1244.68,1151 1228.37,1151L775.443,1151C759.13,1151 745.905,1137.78 745.905,1121.46L745.905,890.581Z" style="fill:rgb(196,105,185);fill-rule:nonzero;"/>
        <path d="M745.905,941.397C745.905,941.397 806.039,903.03 895.51,941.397C984.981,979.764 1048.51,976 1077.51,976C1106.51,976 1096.51,1034.63 1087.51,1038.82C1078.51,1043 745.905,1015.86 745.905,1015.86L745.905,941.397Z" style="fill:rgb(181,67,173);fill-rule:nonzero;"/>
        <path d="M991.239,978C867.75,1014.01 745.904,981 745.904,981L745.904,1121.46C745.904,1137.78 759.128,1151 775.442,1151L1228.37,1151C1244.68,1151 1257.9,1137.78 1257.9,1121.46L1257.9,949C1217.5,934.814 1127.24,938.341 991.239,978Z" style="fill:rgb(94,36,178);fill-rule:nonzero;"/>
        <path d="M1257.9,1121.46L1257.9,1015.76C1252.41,1013.58 1157.55,977.413 1074.78,1038.81C994.523,1098.35 842.313,1163.69 745.905,1120.16L745.905,1121.46C745.905,1137.77 759.129,1151 775.443,1151L1228.37,1151C1244.68,1151 1257.9,1137.78 1257.9,1121.46Z" style="fill:rgb(65,19,137);fill-rule:nonzero;"/>
        <g transform="matrix(1,0,0,1,906.967,655.646)">
            <text x="0px" y="0px" style="font-family:'Montserrat-Regular', 'Montserrat';font-size:146.296px;fill:white;">25<tspan x="163.706px " y="0px ">°</tspan></text>
        </g>
        <g transform="matrix(1,0,0,1,923.182,716.087)">
            <text x="0px" y="0px" style="font-family:'Montserrat-Regular', 'Montserrat';font-size:33.452px;fill:white;">Monda<tspan x="117.618px " y="0px ">y</tspan></text>
        </g>
        <path d="M1258.16,422L1058.77,422C1058.77,422 1113.1,401.122 1158.47,404.561C1203.83,408 1190.83,365 1221.83,365C1252.83,365 1257.9,393.5 1257.9,393.5L1258.16,422Z" style="fill:rgb(253,225,151);fill-rule:nonzero;"/>
        <path d="M745.905,491.601L936.535,491.601C936.535,491.601 928.139,469 902.337,474.333C876.535,479.666 885.868,469.666 849.868,445C813.868,420.334 819.868,463.667 795.868,464.333C771.868,465 750.608,475.535 745.905,491.601Z" style="fill:rgb(253,225,151);fill-rule:nonzero;"/>
    </g>
    <defs>
        <linearGradient id="_Linear1" x1="0" y1="0" x2="1" y2="0" gradientUnits="userSpaceOnUse" gradientTransform="matrix(3.35696e-14,-548.234,548.234,3.35696e-14,397.837,791)"><stop offset="0" style="stop-color:rgb(95,174,243);stop-opacity:1"/><stop offset="1" style="stop-color:rgb(53,33,154);stop-opacity:1"/></linearGradient>
        <linearGradient id="_Linear2" x1="0" y1="0" x2="1" y2="0" gradientUnits="userSpaceOnUse" gradientTransform="matrix(3.9581,-52.0634,52.0634,3.9581,225.862,433.278)"><stop offset="0" style="stop-color:rgb(95,174,243);stop-opacity:1"/><stop offset="1" style="stop-color:rgb(123,205,255);stop-opacity:1"/></linearGradient>
        <radialGradient id="_Radial3" cx="0" cy="0" r="1" gradientUnits="userSpaceOnUse" gradientTransform="matrix(90.9567,0,0,90.9567,251.808,415.227)"><stop offset="0" style="stop-color:white;stop-opacity:1"/><stop offset="1" style="stop-color:rgb(211,249,252);stop-opacity:1"/></radialGradient>
        <linearGradient id="_Linear4" x1="0" y1="0" x2="1" y2="0" gradientUnits="userSpaceOnUse" gradientTransform="matrix(12.8051,-168.435,168.435,12.8051,479.263,844.294)"><stop offset="0" style="stop-color:rgb(95,174,243);stop-opacity:1"/><stop offset="1" style="stop-color:rgb(123,205,255);stop-opacity:1"/></linearGradient>
        <linearGradient id="_Linear5" x1="0" y1="0" x2="1" y2="0" gradientUnits="userSpaceOnUse" gradientTransform="matrix(13.0002,-171,171,13.0002,295.145,843.24)"><stop offset="0" style="stop-color:rgb(95,174,243);stop-opacity:1"/><stop offset="1" style="stop-color:rgb(123,205,255);stop-opacity:1"/></linearGradient>
        <linearGradient id="_Linear6" x1="0" y1="0" x2="1" y2="0" gradientUnits="userSpaceOnUse" gradientTransform="matrix(5.0678,-66.6598,66.6598,5.0678,555.288,410.301)"><stop offset="0" style="stop-color:rgb(95,174,243);stop-opacity:1"/><stop offset="1" style="stop-color:rgb(123,205,255);stop-opacity:1"/></linearGradient>
        <linearGradient id="_Linear7" x1="0" y1="0" x2="1" y2="0" gradientUnits="userSpaceOnUse" gradientTransform="matrix(2.79316e-14,456.158,-456.158,2.79316e-14,1001.9,325)"><stop offset="0" style="stop-color:rgb(140,75,217);stop-opacity:1"/><stop offset="0.51" style="stop-color:rgb(216,117,171);stop-opacity:1"/><stop offset="1" style="stop-color:rgb(247,196,130);stop-opacity:1"/></linearGradient>
    </defs>
</svg>
